<svg xmlns="http://www.w3.org/2000/svg" viewBox="-9.5 -18.497 82 100"><clipPath id="a"><path overflow="visible" d="M0 .006h64v64H0z"/></clipPath><path clip-path="url(#a)" d="M-3.664 34.428l-8.018-.024 1.922-3.157h-6.904l-4.542 7.256h7.706L-19 53.784z"/><path d="M71.396-15.29c-1.051.409-25.191 11.889-25.191 11.889C44.073-2.39 42.5.455 42.5 2.812v73.604c0 1.433.466 2.288 1.562 2.288.406 0 .59-.114 1.063-.34l23.869-11.551c2.131-1.011 3.506-3.856 3.506-6.214v-73.602c0-1.432.021-2.723-1.104-2.287z"/><path d="M68.2-16.517c2.474-1.176 2.205-1.98-.537-1.98H29.334c-2.74 0-7.015.784-9.502 1.934L-5.146-5.01C-7.631-3.859-9.5-.755-9.5 1.984v74.389c0 2.74 1.911 5.13 4.651 5.13h39.24c2.74 0 5.108-2.39 5.108-5.13V1.984c0-2.739 1.962-5.865 4.437-7.041L68.2-16.517zm-41.7 46.02H.5v-3h26v3zm0-7H.5v-3h26v3zm0-7H.5v-3h26v3z"/></svg>